<svg width="424" height="364" viewBox="0 0 424 364" fill="none" xmlns="http://www.w3.org/2000/svg">
<circle cx="224.714" cy="200.141" r="150" stroke="#393745" stroke-width="2" stroke-linecap="round" stroke-linejoin="round" stroke-dasharray="8 8"/>
<path d="M132.39 97.2061C155.496 76.4817 184.904 64.1343 215.879 62.1512L218.706 106.308C197.643 107.657 177.646 116.053 161.933 130.145L132.39 97.2061Z" fill="#747474"/>
<path d="M213.713 62.3069C245.573 59.7642 277.329 68.3369 303.581 86.5667L278.344 122.911C260.492 110.514 238.898 104.685 217.233 106.414L213.713 62.3069Z" fill="#8F8F8F"/>
<path d="M297.987 82.8795C322.75 98.3533 341.979 121.269 352.918 148.344C363.856 175.418 365.943 205.26 358.879 233.593C351.815 261.926 335.962 287.295 313.594 306.064C291.225 324.834 263.488 336.04 234.359 338.077C205.23 340.114 176.203 332.877 151.44 317.403C126.677 301.929 107.448 279.013 96.5093 251.939C85.5707 224.865 83.484 195.023 90.5482 166.69C97.6124 138.357 113.465 112.988 135.834 94.2183L164.275 128.114C149.064 140.877 138.285 158.128 133.481 177.394C128.677 196.661 130.096 216.953 137.535 235.364C144.973 253.774 158.049 269.357 174.888 279.879C191.727 290.402 211.465 295.323 231.272 293.938C251.08 292.553 269.941 284.932 285.152 272.169C300.363 259.406 311.142 242.155 315.946 222.888C320.75 203.622 319.331 183.329 311.892 164.919C304.454 146.508 291.379 130.925 274.539 120.403L297.987 82.8795Z" fill="#BDBDBD"/>
<path d="M163.808 64.5238L128.597 41.5833H74.7134" stroke="#393745" stroke-width="3" stroke-dasharray="6 6"/>
<path d="M272.594 58.2044L306.013 35.2639H357.154" stroke="#393745" stroke-width="3" stroke-dasharray="6 6"/>
<path d="M17.1161 110.727L68.8036 110.727L93.5616 127.232" stroke="#393745" stroke-width="3" stroke-dasharray="6 6"/>
<path d="M30.5379 98.3713C30.5379 99.2805 30.326 100.053 29.9022 100.689C29.4852 101.318 28.9178 101.796 28.2 102.124C27.4891 102.452 26.6859 102.616 25.7904 102.616C24.8949 102.616 24.0882 102.452 23.3705 102.124C22.6527 101.796 22.0853 101.318 21.6683 100.689C21.2513 100.053 21.0428 99.2805 21.0428 98.3713C21.0428 97.7766 21.1556 97.2332 21.3812 96.741C21.6136 96.2419 21.9383 95.8079 22.3553 95.4387C22.7791 95.0696 23.2782 94.7859 23.8524 94.5876C24.4334 94.3826 25.0726 94.28 25.7699 94.28C26.6859 94.28 27.5028 94.4578 28.2206 94.8132C28.9383 95.1619 29.5023 95.6438 29.9124 96.259C30.3294 96.8743 30.5379 97.5784 30.5379 98.3713ZM28.6307 98.3303C28.6307 97.7766 28.5111 97.2878 28.2718 96.864C28.0326 96.4333 27.6976 96.0984 27.2669 95.8591C26.8363 95.6199 26.3372 95.5002 25.7699 95.5002C25.1888 95.5002 24.6864 95.6199 24.2625 95.8591C23.8456 96.0984 23.5208 96.4333 23.2884 96.864C23.056 97.2878 22.9398 97.7766 22.9398 98.3303C22.9398 98.9045 23.0526 99.3967 23.2782 99.8069C23.5106 100.21 23.8387 100.521 24.2625 100.74C24.6932 100.952 25.2025 101.058 25.7904 101.058C26.3783 101.058 26.8841 100.952 27.308 100.74C27.7318 100.521 28.0565 100.21 28.2821 99.8069C28.5145 99.3967 28.6307 98.9045 28.6307 98.3303ZM30.1893 91.3679C30.1893 92.0925 29.9979 92.7454 29.6151 93.3264C29.2323 93.9075 28.7093 94.3655 28.0462 94.7004C27.3831 95.0354 26.6312 95.2029 25.7904 95.2029C24.9359 95.2029 24.1737 95.0354 23.5038 94.7004C22.8407 94.3655 22.3211 93.9075 21.9452 93.3264C21.5692 92.7454 21.3812 92.0925 21.3812 91.3679C21.3812 90.4998 21.5692 89.7615 21.9452 89.1531C22.328 88.5447 22.8509 88.0798 23.514 87.7585C24.1771 87.4373 24.9325 87.2766 25.7801 87.2766C26.6346 87.2766 27.3934 87.4373 28.0565 87.7585C28.7196 88.0798 29.2391 88.5447 29.6151 89.1531C29.9979 89.7615 30.1893 90.4998 30.1893 91.3679ZM28.2923 91.3987C28.2923 90.8997 28.1864 90.4587 27.9745 90.0759C27.7625 89.6931 27.4686 89.3923 27.0926 89.1736C26.7166 88.948 26.2791 88.8352 25.7801 88.8352C25.2811 88.8352 24.8436 88.9412 24.4676 89.1531C24.0985 89.3582 23.808 89.6521 23.596 90.0349C23.391 90.4177 23.2884 90.8723 23.2884 91.3987C23.2884 91.9114 23.391 92.3591 23.596 92.7419C23.808 93.1248 24.1019 93.4221 24.4779 93.634C24.8539 93.8459 25.2914 93.9519 25.7904 93.9519C26.2894 93.9519 26.7235 93.8459 27.0926 93.634C27.4686 93.4221 27.7625 93.1248 27.9745 92.7419C28.1864 92.3591 28.2923 91.9114 28.2923 91.3987ZM43.0272 97.387V98.9456H32.2401V97.8279L38.9256 87.4817H40.474L38.8128 90.4758L34.3934 97.387H43.0272ZM40.9456 87.4817V102.411H39.0487V87.4817H40.9456ZM44.5858 91.1423V90.3528C44.5858 89.7854 44.7088 89.2693 44.9549 88.8044C45.201 88.3396 45.5531 87.967 46.0111 87.6868C46.4691 87.4065 47.0125 87.2664 47.6414 87.2664C48.284 87.2664 48.8309 87.4065 49.2821 87.6868C49.7401 87.967 50.0921 88.3396 50.3382 88.8044C50.5843 89.2693 50.7074 89.7854 50.7074 90.3528V91.1423C50.7074 91.696 50.5843 92.2053 50.3382 92.6702C50.099 93.135 49.7503 93.5076 49.2923 93.7878C48.8412 94.0681 48.2977 94.2083 47.662 94.2083C47.0262 94.2083 46.4759 94.0681 46.0111 93.7878C45.5531 93.5076 45.201 93.135 44.9549 92.6702C44.7088 92.2053 44.5858 91.696 44.5858 91.1423ZM46.0111 90.3528V91.1423C46.0111 91.4568 46.0692 91.7542 46.1854 92.0344C46.3084 92.3147 46.493 92.5437 46.7391 92.7214C46.9852 92.8923 47.2928 92.9778 47.662 92.9778C48.0311 92.9778 48.3353 92.8923 48.5746 92.7214C48.8138 92.5437 48.9915 92.3147 49.1078 92.0344C49.224 91.7542 49.2821 91.4568 49.2821 91.1423V90.3528C49.2821 90.0315 49.2206 89.7307 49.0975 89.4504C48.9813 89.1633 48.8001 88.9343 48.554 88.7634C48.3148 88.5857 48.0106 88.4968 47.6414 88.4968C47.2791 88.4968 46.9749 88.5857 46.7289 88.7634C46.4896 88.9343 46.3084 89.1633 46.1854 89.4504C46.0692 89.7307 46.0111 90.0315 46.0111 90.3528ZM51.8558 99.5505V98.7507C51.8558 98.1902 51.9789 97.6775 52.2249 97.2126C52.471 96.7478 52.8231 96.3752 53.2811 96.095C53.7391 95.8147 54.2826 95.6746 54.9115 95.6746C55.554 95.6746 56.1009 95.8147 56.5521 96.095C57.0101 96.3752 57.3622 96.7478 57.6082 97.2126C57.8543 97.6775 57.9774 98.1902 57.9774 98.7507V99.5505C57.9774 100.111 57.8543 100.624 57.6082 101.089C57.369 101.553 57.0204 101.926 56.5623 102.206C56.1112 102.487 55.5677 102.627 54.932 102.627C54.2962 102.627 53.7494 102.487 53.2914 102.206C52.8333 101.926 52.4779 101.553 52.2249 101.089C51.9789 100.624 51.8558 100.111 51.8558 99.5505ZM53.2811 98.7507V99.5505C53.2811 99.865 53.3392 100.166 53.4554 100.453C53.5785 100.733 53.763 100.962 54.0091 101.14C54.2552 101.311 54.5628 101.396 54.932 101.396C55.3011 101.396 55.6053 101.311 55.8446 101.14C56.0907 100.962 56.2718 100.733 56.388 100.453C56.5042 100.173 56.5623 99.8718 56.5623 99.5505V98.7507C56.5623 98.4294 56.5008 98.1287 56.3778 97.8484C56.2616 97.5681 56.0804 97.3425 55.8343 97.1716C55.5951 96.9939 55.2874 96.905 54.9115 96.905C54.5492 96.905 54.245 96.9939 53.9989 97.1716C53.7596 97.3425 53.5785 97.5681 53.4554 97.8484C53.3392 98.1287 53.2811 98.4294 53.2811 98.7507ZM55.3831 89.6042L48.0926 101.273L47.0262 100.596L54.3167 88.9275L55.3831 89.6042Z" fill="black"/>
<path d="M90.9089 28.134C90.9089 29.0432 90.697 29.8157 90.2732 30.4514C89.8562 31.0803 89.2888 31.5588 88.571 31.887C87.8601 32.2151 87.0568 32.3792 86.1613 32.3792C85.2658 32.3792 84.4592 32.2151 83.7414 31.887C83.0236 31.5588 82.4563 31.0803 82.0393 30.4514C81.6223 29.8157 81.4138 29.0432 81.4138 28.134C81.4138 27.5393 81.5266 26.9958 81.7522 26.5037C81.9846 26.0046 82.3093 25.5706 82.7263 25.2014C83.1501 24.8323 83.6491 24.5486 84.2233 24.3503C84.8044 24.1453 85.4436 24.0427 86.1408 24.0427C87.0568 24.0427 87.8737 24.2205 88.5915 24.5759C89.3093 24.9246 89.8732 25.4065 90.2834 26.0217C90.7004 26.637 90.9089 27.3411 90.9089 28.134ZM89.0017 28.093C89.0017 27.5393 88.882 27.0505 88.6428 26.6267C88.4035 26.196 88.0686 25.8611 87.6379 25.6218C87.2072 25.3826 86.7082 25.2629 86.1408 25.2629C85.5598 25.2629 85.0573 25.3826 84.6335 25.6218C84.2165 25.8611 83.8918 26.196 83.6594 26.6267C83.427 27.0505 83.3107 27.5393 83.3107 28.093C83.3107 28.6672 83.4235 29.1594 83.6491 29.5696C83.8815 29.9729 84.2097 30.2839 84.6335 30.5027C85.0642 30.7146 85.5734 30.8206 86.1613 30.8206C86.7492 30.8206 87.2551 30.7146 87.6789 30.5027C88.1027 30.2839 88.4274 29.9729 88.653 29.5696C88.8855 29.1594 89.0017 28.6672 89.0017 28.093ZM90.5603 21.1306C90.5603 21.8552 90.3689 22.5081 89.986 23.0891C89.6032 23.6702 89.0803 24.1282 88.4172 24.4631C87.7541 24.7981 87.0022 24.9656 86.1613 24.9656C85.3068 24.9656 84.5446 24.7981 83.8747 24.4631C83.2116 24.1282 82.6921 23.6702 82.3161 23.0891C81.9401 22.5081 81.7522 21.8552 81.7522 21.1306C81.7522 20.2625 81.9401 19.5242 82.3161 18.9158C82.6989 18.3074 83.2219 17.8425 83.885 17.5212C84.5481 17.2 85.3034 17.0393 86.1511 17.0393C87.0056 17.0393 87.7644 17.2 88.4274 17.5212C89.0905 17.8425 89.6101 18.3074 89.986 18.9158C90.3689 19.5242 90.5603 20.2625 90.5603 21.1306ZM88.6633 21.1614C88.6633 20.6624 88.5573 20.2214 88.3454 19.8386C88.1335 19.4558 87.8396 19.155 87.4636 18.9363C87.0876 18.7107 86.6501 18.5979 86.1511 18.5979C85.6521 18.5979 85.2146 18.7039 84.8386 18.9158C84.4694 19.1208 84.1789 19.4148 83.967 19.7976C83.7619 20.1804 83.6594 20.635 83.6594 21.1614C83.6594 21.6741 83.7619 22.1218 83.967 22.5046C84.1789 22.8875 84.4729 23.1848 84.8488 23.3967C85.2248 23.6086 85.6623 23.7146 86.1613 23.7146C86.6604 23.7146 87.0944 23.6086 87.4636 23.3967C87.8396 23.1848 88.1335 22.8875 88.3454 22.5046C88.5573 22.1218 88.6633 21.6741 88.6633 21.1614ZM93.1442 20.905V20.1155C93.1442 19.5481 93.2673 19.032 93.5134 18.5671C93.7595 18.1023 94.1115 17.7297 94.5695 17.4495C95.0275 17.1692 95.571 17.0291 96.1999 17.0291C96.8425 17.0291 97.3894 17.1692 97.8405 17.4495C98.2985 17.7297 98.6506 18.1023 98.8967 18.5671C99.1428 19.032 99.2658 19.5481 99.2658 20.1155V20.905C99.2658 21.4587 99.1428 21.968 98.8967 22.4329C98.6574 22.8977 98.3088 23.2703 97.8508 23.5505C97.3996 23.8308 96.8562 23.9709 96.2204 23.9709C95.5847 23.9709 95.0344 23.8308 94.5695 23.5505C94.1115 23.2703 93.7595 22.8977 93.5134 22.4329C93.2673 21.968 93.1442 21.4587 93.1442 20.905ZM94.5695 20.1155V20.905C94.5695 21.2195 94.6276 21.5168 94.7439 21.7971C94.8669 22.0774 95.0515 22.3064 95.2976 22.4841C95.5437 22.655 95.8513 22.7405 96.2204 22.7405C96.5896 22.7405 96.8938 22.655 97.133 22.4841C97.3723 22.3064 97.55 22.0774 97.6662 21.7971C97.7824 21.5168 97.8405 21.2195 97.8405 20.905V20.1155C97.8405 19.7942 97.779 19.4934 97.656 19.2131C97.5398 18.926 97.3586 18.697 97.1125 18.5261C96.8732 18.3484 96.569 18.2595 96.1999 18.2595C95.8376 18.2595 95.5334 18.3484 95.2873 18.5261C95.0481 18.697 94.8669 18.926 94.7439 19.2131C94.6276 19.4934 94.5695 19.7942 94.5695 20.1155ZM100.414 29.3132V28.5134C100.414 27.9529 100.537 27.4402 100.783 26.9753C101.029 26.5105 101.382 26.1379 101.84 25.8577C102.298 25.5774 102.841 25.4373 103.47 25.4373C104.113 25.4373 104.659 25.5774 105.111 25.8577C105.569 26.1379 105.921 26.5105 106.167 26.9753C106.413 27.4402 106.536 27.9529 106.536 28.5134V29.3132C106.536 29.8738 106.413 30.3865 106.167 30.8513C105.927 31.3162 105.579 31.6887 105.121 31.969C104.67 32.2493 104.126 32.3894 103.49 32.3894C102.855 32.3894 102.308 32.2493 101.85 31.969C101.392 31.6887 101.036 31.3162 100.783 30.8513C100.537 30.3865 100.414 29.8738 100.414 29.3132ZM101.84 28.5134V29.3132C101.84 29.6277 101.898 29.9285 102.014 30.2156C102.137 30.4958 102.321 30.7249 102.568 30.9026C102.814 31.0735 103.121 31.1589 103.49 31.1589C103.86 31.1589 104.164 31.0735 104.403 30.9026C104.649 30.7249 104.83 30.4958 104.946 30.2156C105.063 29.9353 105.121 29.6345 105.121 29.3132V28.5134C105.121 28.1921 105.059 27.8914 104.936 27.6111C104.82 27.3308 104.639 27.1052 104.393 26.9343C104.154 26.7566 103.846 26.6677 103.47 26.6677C103.108 26.6677 102.803 26.7566 102.557 26.9343C102.318 27.1052 102.137 27.3308 102.014 27.6111C101.898 27.8914 101.84 28.1921 101.84 28.5134ZM103.942 19.3669L96.6511 31.0359L95.5847 30.3591L102.875 18.6902L103.942 19.3669Z" fill="black"/>
<path d="M324.798 26.7539C324.798 27.6631 324.586 28.4355 324.162 29.0713C323.745 29.7002 323.178 30.1787 322.46 30.5068C321.749 30.835 320.946 30.999 320.05 30.999C319.155 30.999 318.348 30.835 317.63 30.5068C316.913 30.1787 316.345 29.7002 315.928 29.0713C315.511 28.4355 315.303 27.6631 315.303 26.7539C315.303 26.1592 315.416 25.6157 315.641 25.1235C315.874 24.6245 316.198 24.1904 316.615 23.8213C317.039 23.4521 317.538 23.1685 318.112 22.9702C318.693 22.7651 319.333 22.6626 320.03 22.6626C320.946 22.6626 321.763 22.8403 322.481 23.1958C323.198 23.5444 323.762 24.0264 324.172 24.6416C324.589 25.2568 324.798 25.9609 324.798 26.7539ZM322.891 26.7129C322.891 26.1592 322.771 25.6704 322.532 25.2466C322.293 24.8159 321.958 24.481 321.527 24.2417C321.096 24.0024 320.597 23.8828 320.03 23.8828C319.449 23.8828 318.946 24.0024 318.523 24.2417C318.106 24.481 317.781 24.8159 317.548 25.2466C317.316 25.6704 317.2 26.1592 317.2 26.7129C317.2 27.2871 317.313 27.7793 317.538 28.1895C317.771 28.5928 318.099 28.9038 318.523 29.1226C318.953 29.3345 319.462 29.4404 320.05 29.4404C320.638 29.4404 321.144 29.3345 321.568 29.1226C321.992 28.9038 322.316 28.5928 322.542 28.1895C322.774 27.7793 322.891 27.2871 322.891 26.7129ZM324.449 19.7505C324.449 20.4751 324.258 21.1279 323.875 21.709C323.492 22.29 322.969 22.748 322.306 23.083C321.643 23.418 320.891 23.5854 320.05 23.5854C319.196 23.5854 318.434 23.418 317.764 23.083C317.101 22.748 316.581 22.29 316.205 21.709C315.829 21.1279 315.641 20.4751 315.641 19.7505C315.641 18.8823 315.829 18.144 316.205 17.5356C316.588 16.9272 317.111 16.4624 317.774 16.1411C318.437 15.8198 319.192 15.6592 320.04 15.6592C320.895 15.6592 321.653 15.8198 322.316 16.1411C322.98 16.4624 323.499 16.9272 323.875 17.5356C324.258 18.144 324.449 18.8823 324.449 19.7505ZM322.552 19.7812C322.552 19.2822 322.446 18.8413 322.234 18.4585C322.023 18.0757 321.729 17.7749 321.353 17.5562C320.977 17.3306 320.539 17.2178 320.04 17.2178C319.541 17.2178 319.104 17.3237 318.728 17.5356C318.358 17.7407 318.068 18.0347 317.856 18.4175C317.651 18.8003 317.548 19.2549 317.548 19.7812C317.548 20.2939 317.651 20.7417 317.856 21.1245C318.068 21.5073 318.362 21.8047 318.738 22.0166C319.114 22.2285 319.551 22.3345 320.05 22.3345C320.549 22.3345 320.983 22.2285 321.353 22.0166C321.729 21.8047 322.023 21.5073 322.234 21.1245C322.446 20.7417 322.552 20.2939 322.552 19.7812ZM327.033 19.5249V18.7354C327.033 18.168 327.156 17.6519 327.402 17.187C327.648 16.7222 328.001 16.3496 328.459 16.0693C328.917 15.7891 329.46 15.6489 330.089 15.6489C330.732 15.6489 331.278 15.7891 331.73 16.0693C332.188 16.3496 332.54 16.7222 332.786 17.187C333.032 17.6519 333.155 18.168 333.155 18.7354V19.5249C333.155 20.0786 333.032 20.5879 332.786 21.0527C332.546 21.5176 332.198 21.8901 331.74 22.1704C331.289 22.4507 330.745 22.5908 330.109 22.5908C329.474 22.5908 328.923 22.4507 328.459 22.1704C328.001 21.8901 327.648 21.5176 327.402 21.0527C327.156 20.5879 327.033 20.0786 327.033 19.5249ZM328.459 18.7354V19.5249C328.459 19.8394 328.517 20.1367 328.633 20.417C328.756 20.6973 328.94 20.9263 329.187 21.104C329.433 21.2749 329.74 21.3604 330.109 21.3604C330.479 21.3604 330.783 21.2749 331.022 21.104C331.261 20.9263 331.439 20.6973 331.555 20.417C331.671 20.1367 331.73 19.8394 331.73 19.5249V18.7354C331.73 18.4141 331.668 18.1133 331.545 17.833C331.429 17.5459 331.248 17.3169 331.002 17.146C330.762 16.9683 330.458 16.8794 330.089 16.8794C329.727 16.8794 329.422 16.9683 329.176 17.146C328.937 17.3169 328.756 17.5459 328.633 17.833C328.517 18.1133 328.459 18.4141 328.459 18.7354ZM334.303 27.9331V27.1333C334.303 26.5728 334.426 26.0601 334.672 25.5952C334.919 25.1304 335.271 24.7578 335.729 24.4775C336.187 24.1973 336.73 24.0571 337.359 24.0571C338.002 24.0571 338.548 24.1973 339 24.4775C339.458 24.7578 339.81 25.1304 340.056 25.5952C340.302 26.0601 340.425 26.5728 340.425 27.1333V27.9331C340.425 28.4937 340.302 29.0063 340.056 29.4712C339.816 29.936 339.468 30.3086 339.01 30.5889C338.559 30.8691 338.015 31.0093 337.379 31.0093C336.744 31.0093 336.197 30.8691 335.739 30.5889C335.281 30.3086 334.925 29.936 334.672 29.4712C334.426 29.0063 334.303 28.4937 334.303 27.9331ZM335.729 27.1333V27.9331C335.729 28.2476 335.787 28.5483 335.903 28.8354C336.026 29.1157 336.211 29.3447 336.457 29.5225C336.703 29.6934 337.01 29.7788 337.379 29.7788C337.749 29.7788 338.053 29.6934 338.292 29.5225C338.538 29.3447 338.719 29.1157 338.836 28.8354C338.952 28.5552 339.01 28.2544 339.01 27.9331V27.1333C339.01 26.812 338.948 26.5112 338.825 26.231C338.709 25.9507 338.528 25.7251 338.282 25.5542C338.043 25.3765 337.735 25.2876 337.359 25.2876C336.997 25.2876 336.692 25.3765 336.446 25.5542C336.207 25.7251 336.026 25.9507 335.903 26.231C335.787 26.5112 335.729 26.812 335.729 27.1333ZM337.831 17.9868L330.54 29.6558L329.474 28.979L336.764 17.3101L337.831 17.9868Z" fill="black"/>
</svg>
