<svg width="424" height="364" viewBox="0 0 424 364" fill="none" xmlns="http://www.w3.org/2000/svg">
<circle cx="224.714" cy="200.141" r="150" stroke="#393745" stroke-width="2" stroke-linecap="round" stroke-linejoin="round" stroke-dasharray="8 8"/>
<path d="M132.39 97.2061C155.496 76.4817 184.904 64.1343 215.879 62.1512L218.706 106.308C197.643 107.657 177.646 116.053 161.933 130.145L132.39 97.2061Z" fill="#747474"/>
<path d="M213.713 62.3069C245.573 59.7642 277.329 68.3369 303.581 86.5667L278.344 122.911C260.492 110.514 238.898 104.685 217.233 106.414L213.713 62.3069Z" fill="#8F8F8F"/>
<path d="M297.987 82.8795C322.75 98.3533 341.979 121.269 352.918 148.344C363.856 175.418 365.943 205.26 358.879 233.593C351.815 261.926 335.962 287.295 313.594 306.064C291.225 324.834 263.488 336.04 234.359 338.077C205.23 340.114 176.203 332.877 151.44 317.403C126.677 301.929 107.448 279.013 96.5093 251.939C85.5707 224.865 83.484 195.023 90.5482 166.69C97.6124 138.357 113.465 112.988 135.834 94.2183L164.275 128.114C149.064 140.877 138.285 158.128 133.481 177.394C128.677 196.661 130.096 216.953 137.535 235.364C144.973 253.774 158.049 269.357 174.888 279.879C191.727 290.402 211.465 295.323 231.272 293.938C251.08 292.553 269.941 284.932 285.152 272.169C300.363 259.406 311.142 242.155 315.946 222.888C320.75 203.622 319.331 183.329 311.892 164.919C304.454 146.508 291.379 130.925 274.539 120.403L297.987 82.8795Z" fill="#BDBDBD"/>
<path d="M163.808 64.5238L128.597 41.5833H74.7134" stroke="#393745" stroke-width="3" stroke-dasharray="6 6"/>
<path d="M272.594 58.2044L306.013 35.2639H357.154" stroke="#393745" stroke-width="3" stroke-dasharray="6 6"/>
<path d="M17.1161 110.727L68.8036 110.727L93.5616 127.232" stroke="#393745" stroke-width="3" stroke-dasharray="6 6"/>
<path d="M30.5379 98.3713C30.5379 99.2805 30.326 100.053 29.9022 100.689C29.4852 101.318 28.9178 101.796 28.2 102.124C27.4891 102.452 26.6859 102.616 25.7904 102.616C24.8949 102.616 24.0882 102.452 23.3705 102.124C22.6527 101.796 22.0853 101.318 21.6683 100.689C21.2513 100.053 21.0428 99.2805 21.0428 98.3713C21.0428 97.7766 21.1556 97.2332 21.3812 96.741C21.6136 96.2419 21.9383 95.8079 22.3553 95.4387C22.7791 95.0696 23.2782 94.7859 23.8524 94.5876C24.4334 94.3826 25.0726 94.28 25.7699 94.28C26.6859 94.28 27.5028 94.4578 28.2206 94.8132C28.9383 95.1619 29.5023 95.6438 29.9124 96.259C30.3294 96.8743 30.5379 97.5784 30.5379 98.3713ZM28.6307 98.3303C28.6307 97.7766 28.5111 97.2878 28.2718 96.864C28.0326 96.4333 27.6976 96.0984 27.2669 95.8591C26.8363 95.6199 26.3372 95.5002 25.7699 95.5002C25.1888 95.5002 24.6864 95.6199 24.2625 95.8591C23.8456 96.0984 23.5208 96.4333 23.2884 96.864C23.056 97.2878 22.9398 97.7766 22.9398 98.3303C22.9398 98.9045 23.0526 99.3967 23.2782 99.8069C23.5106 100.21 23.8387 100.521 24.2625 100.74C24.6932 100.952 25.2025 101.058 25.7904 101.058C26.3783 101.058 26.8841 100.952 27.308 100.74C27.7318 100.521 28.0565 100.21 28.2821 99.8069C28.5145 99.3967 28.6307 98.9045 28.6307 98.3303ZM30.1893 91.3679C30.1893 92.0925 29.9979 92.7454 29.6151 93.3264C29.2323 93.9075 28.7093 94.3655 28.0462 94.7004C27.3831 95.0354 26.6312 95.2029 25.7904 95.2029C24.9359 95.2029 24.1737 95.0354 23.5038 94.7004C22.8407 94.3655 22.3211 93.9075 21.9452 93.3264C21.5692 92.7454 21.3812 92.0925 21.3812 91.3679C21.3812 90.4998 21.5692 89.7615 21.9452 89.1531C22.328 88.5447 22.8509 88.0798 23.514 87.7585C24.1771 87.4373 24.9325 87.2766 25.7801 87.2766C26.6346 87.2766 27.3934 87.4373 28.0565 87.7585C28.7196 88.0798 29.2391 88.5447 29.6151 89.1531C29.9979 89.7615 30.1893 90.4998 30.1893 91.3679ZM28.2923 91.3987C28.2923 90.8997 28.1864 90.4587 27.9745 90.0759C27.7625 89.6931 27.4686 89.3923 27.0926 89.1736C26.7166 88.948 26.2791 88.8352 25.7801 88.8352C25.2811 88.8352 24.8436 88.9412 24.4676 89.1531C24.0985 89.3582 23.808 89.6521 23.596 90.0349C23.391 90.4177 23.2884 90.8723 23.2884 91.3987C23.2884 91.9114 23.391 92.3591 23.596 92.7419C23.808 93.1248 24.1019 93.4221 24.4779 93.634C24.8539 93.8459 25.2914 93.9519 25.7904 93.9519C26.2894 93.9519 26.7235 93.8459 27.0926 93.634C27.4686 93.4221 27.7625 93.1248 27.9745 92.7419C28.1864 92.3591 28.2923 91.9114 28.2923 91.3987ZM42.3094 93.7571V96.0334C42.3094 97.2571 42.2 98.2893 41.9813 99.1301C41.7625 99.9709 41.4481 100.648 41.0379 101.16C40.6278 101.673 40.1322 102.046 39.5511 102.278C38.9769 102.504 38.3275 102.616 37.6029 102.616C37.0287 102.616 36.4989 102.545 36.0135 102.401C35.5282 102.258 35.0907 102.029 34.701 101.714C34.3182 101.393 33.9901 100.976 33.7166 100.463C33.4432 99.9504 33.2347 99.3284 33.0912 98.5969C32.9476 97.8655 32.8758 97.011 32.8758 96.0334V93.7571C32.8758 92.5334 32.9852 91.5081 33.2039 90.6809C33.4295 89.8538 33.7474 89.1907 34.1576 88.6917C34.5677 88.1858 35.0599 87.8235 35.6341 87.6047C36.2152 87.386 36.8646 87.2766 37.5824 87.2766C38.1634 87.2766 38.6966 87.3484 39.182 87.4919C39.6742 87.6287 40.1117 87.8508 40.4945 88.1584C40.8773 88.4592 41.202 88.8625 41.4686 89.3684C41.742 89.8674 41.9505 90.4792 42.0941 91.2039C42.2376 91.9285 42.3094 92.7795 42.3094 93.7571ZM40.4022 96.3411V93.4392C40.4022 92.7693 40.3612 92.1814 40.2791 91.6755C40.2039 91.1628 40.0912 90.7253 39.9408 90.363C39.7904 90.0007 39.599 89.7068 39.3665 89.4812C39.141 89.2556 38.8778 89.0916 38.577 88.989C38.2831 88.8796 37.9515 88.825 37.5824 88.825C37.1312 88.825 36.7313 88.9104 36.3827 89.0813C36.034 89.2454 35.7401 89.5085 35.5008 89.8708C35.2684 90.2332 35.0907 90.7083 34.9676 91.2961C34.8446 91.884 34.7831 92.5984 34.7831 93.4392V96.3411C34.7831 97.011 34.8206 97.6023 34.8958 98.115C34.9779 98.6277 35.0975 99.072 35.2547 99.448C35.412 99.8171 35.6034 100.121 35.8289 100.361C36.0545 100.6 36.3143 100.778 36.6082 100.894C36.909 101.003 37.2406 101.058 37.6029 101.058C38.0677 101.058 38.4745 100.969 38.8231 100.791C39.1717 100.614 39.4622 100.337 39.6947 99.9607C39.9339 99.5779 40.1117 99.0891 40.2279 98.4944C40.3441 97.8928 40.4022 97.175 40.4022 96.3411ZM44.5858 91.1423V90.3528C44.5858 89.7854 44.7088 89.2693 44.9549 88.8044C45.201 88.3396 45.5531 87.967 46.0111 87.6868C46.4691 87.4065 47.0125 87.2664 47.6414 87.2664C48.284 87.2664 48.8309 87.4065 49.2821 87.6868C49.7401 87.967 50.0921 88.3396 50.3382 88.8044C50.5843 89.2693 50.7074 89.7854 50.7074 90.3528V91.1423C50.7074 91.696 50.5843 92.2053 50.3382 92.6702C50.099 93.135 49.7503 93.5076 49.2923 93.7878C48.8412 94.0681 48.2977 94.2083 47.662 94.2083C47.0262 94.2083 46.4759 94.0681 46.0111 93.7878C45.5531 93.5076 45.201 93.135 44.9549 92.6702C44.7088 92.2053 44.5858 91.696 44.5858 91.1423ZM46.0111 90.3528V91.1423C46.0111 91.4568 46.0692 91.7542 46.1854 92.0344C46.3084 92.3147 46.493 92.5437 46.7391 92.7214C46.9852 92.8923 47.2928 92.9778 47.662 92.9778C48.0311 92.9778 48.3353 92.8923 48.5746 92.7214C48.8138 92.5437 48.9915 92.3147 49.1078 92.0344C49.224 91.7542 49.2821 91.4568 49.2821 91.1423V90.3528C49.2821 90.0315 49.2206 89.7307 49.0975 89.4504C48.9813 89.1633 48.8001 88.9343 48.554 88.7634C48.3148 88.5857 48.0106 88.4968 47.6414 88.4968C47.2791 88.4968 46.9749 88.5857 46.7289 88.7634C46.4896 88.9343 46.3084 89.1633 46.1854 89.4504C46.0692 89.7307 46.0111 90.0315 46.0111 90.3528ZM51.8558 99.5505V98.7507C51.8558 98.1902 51.9789 97.6775 52.2249 97.2126C52.471 96.7478 52.8231 96.3752 53.2811 96.095C53.7391 95.8147 54.2826 95.6746 54.9115 95.6746C55.554 95.6746 56.1009 95.8147 56.5521 96.095C57.0101 96.3752 57.3622 96.7478 57.6082 97.2126C57.8543 97.6775 57.9774 98.1902 57.9774 98.7507V99.5505C57.9774 100.111 57.8543 100.624 57.6082 101.089C57.369 101.553 57.0204 101.926 56.5623 102.206C56.1112 102.487 55.5677 102.627 54.932 102.627C54.2962 102.627 53.7494 102.487 53.2914 102.206C52.8333 101.926 52.4779 101.553 52.2249 101.089C51.9789 100.624 51.8558 100.111 51.8558 99.5505ZM53.2811 98.7507V99.5505C53.2811 99.865 53.3392 100.166 53.4554 100.453C53.5785 100.733 53.763 100.962 54.0091 101.14C54.2552 101.311 54.5628 101.396 54.932 101.396C55.3011 101.396 55.6053 101.311 55.8446 101.14C56.0907 100.962 56.2718 100.733 56.388 100.453C56.5042 100.173 56.5623 99.8718 56.5623 99.5505V98.7507C56.5623 98.4294 56.5008 98.1287 56.3778 97.8484C56.2616 97.5681 56.0804 97.3425 55.8343 97.1716C55.5951 96.9939 55.2874 96.905 54.9115 96.905C54.5492 96.905 54.245 96.9939 53.9989 97.1716C53.7596 97.3425 53.5785 97.5681 53.4554 97.8484C53.3392 98.1287 53.2811 98.4294 53.2811 98.7507ZM55.3831 89.6042L48.0926 101.273L47.0262 100.596L54.3167 88.9275L55.3831 89.6042Z" fill="black"/>
<path d="M87.7302 17.1624V32.1741H85.8332V19.531L82.0085 20.9255V19.2131L87.4328 17.1624H87.7302ZM102.68 23.5198V25.7961C102.68 27.0198 102.571 28.052 102.352 28.8928C102.134 29.7336 101.819 30.4104 101.409 30.9231C100.999 31.4358 100.503 31.8083 99.9221 32.0408C99.3479 32.2664 98.6984 32.3792 97.9738 32.3792C97.3996 32.3792 96.8698 32.3074 96.3845 32.1638C95.8991 32.0203 95.4616 31.7913 95.072 31.4768C94.6892 31.1555 94.361 30.7385 94.0876 30.2258C93.8142 29.7131 93.6057 29.0911 93.4621 28.3596C93.3186 27.6282 93.2468 26.7737 93.2468 25.7961V23.5198C93.2468 22.2961 93.3562 21.2708 93.5749 20.4436C93.8005 19.6165 94.1184 18.9534 94.5285 18.4543C94.9387 17.9485 95.4309 17.5862 96.0051 17.3674C96.5861 17.1487 97.2356 17.0393 97.9533 17.0393C98.5344 17.0393 99.0676 17.1111 99.5529 17.2546C100.045 17.3914 100.483 17.6135 100.865 17.9211C101.248 18.2219 101.573 18.6252 101.84 19.1311C102.113 19.6301 102.321 20.2419 102.465 20.9666C102.609 21.6912 102.68 22.5422 102.68 23.5198ZM100.773 26.1038V23.2019C100.773 22.532 100.732 21.9441 100.65 21.4382C100.575 20.9255 100.462 20.488 100.312 20.1257C100.161 19.7634 99.9699 19.4695 99.7375 19.2439C99.5119 19.0183 99.2487 18.8542 98.948 18.7517C98.654 18.6423 98.3225 18.5876 97.9533 18.5876C97.5022 18.5876 97.1023 18.6731 96.7536 18.844C96.405 19.0081 96.111 19.2712 95.8718 19.6335C95.6394 19.9958 95.4616 20.4709 95.3386 21.0588C95.2155 21.6467 95.154 22.3611 95.154 23.2019V26.1038C95.154 26.7737 95.1916 27.365 95.2668 27.8777C95.3488 28.3904 95.4685 28.8347 95.6257 29.2107C95.7829 29.5798 95.9743 29.884 96.1999 30.1233C96.4255 30.3625 96.6853 30.5403 96.9792 30.6565C97.28 30.7659 97.6115 30.8206 97.9738 30.8206C98.4387 30.8206 98.8454 30.7317 99.194 30.554C99.5427 30.3762 99.8332 30.0994 100.066 29.7234C100.305 29.3406 100.483 28.8518 100.599 28.2571C100.715 27.6555 100.773 26.9377 100.773 26.1038ZM104.957 20.905V20.1155C104.957 19.5481 105.08 19.032 105.326 18.5671C105.572 18.1023 105.924 17.7297 106.382 17.4495C106.84 17.1692 107.384 17.0291 108.012 17.0291C108.655 17.0291 109.202 17.1692 109.653 17.4495C110.111 17.7297 110.463 18.1023 110.709 18.5671C110.955 19.032 111.078 19.5481 111.078 20.1155V20.905C111.078 21.4587 110.955 21.968 110.709 22.4329C110.47 22.8977 110.121 23.2703 109.663 23.5505C109.212 23.8308 108.669 23.9709 108.033 23.9709C107.397 23.9709 106.847 23.8308 106.382 23.5505C105.924 23.2703 105.572 22.8977 105.326 22.4329C105.08 21.968 104.957 21.4587 104.957 20.905ZM106.382 20.1155V20.905C106.382 21.2195 106.44 21.5168 106.556 21.7971C106.679 22.0774 106.864 22.3064 107.11 22.4841C107.356 22.655 107.664 22.7405 108.033 22.7405C108.402 22.7405 108.706 22.655 108.946 22.4841C109.185 22.3064 109.363 22.0774 109.479 21.7971C109.595 21.5168 109.653 21.2195 109.653 20.905V20.1155C109.653 19.7942 109.592 19.4934 109.468 19.2131C109.352 18.926 109.171 18.697 108.925 18.5261C108.686 18.3484 108.382 18.2595 108.012 18.2595C107.65 18.2595 107.346 18.3484 107.1 18.5261C106.861 18.697 106.679 18.926 106.556 19.2131C106.44 19.4934 106.382 19.7942 106.382 20.1155ZM112.227 29.3132V28.5134C112.227 27.9529 112.35 27.4402 112.596 26.9753C112.842 26.5105 113.194 26.1379 113.652 25.8577C114.11 25.5774 114.654 25.4373 115.282 25.4373C115.925 25.4373 116.472 25.5774 116.923 25.8577C117.381 26.1379 117.733 26.5105 117.979 26.9753C118.225 27.4402 118.348 27.9529 118.348 28.5134V29.3132C118.348 29.8738 118.225 30.3865 117.979 30.8513C117.74 31.3162 117.391 31.6887 116.933 31.969C116.482 32.2493 115.939 32.3894 115.303 32.3894C114.667 32.3894 114.12 32.2493 113.662 31.969C113.204 31.6887 112.849 31.3162 112.596 30.8513C112.35 30.3865 112.227 29.8738 112.227 29.3132ZM113.652 28.5134V29.3132C113.652 29.6277 113.71 29.9285 113.826 30.2156C113.949 30.4958 114.134 30.7249 114.38 30.9026C114.626 31.0735 114.934 31.1589 115.303 31.1589C115.672 31.1589 115.976 31.0735 116.216 30.9026C116.462 30.7249 116.643 30.4958 116.759 30.2156C116.875 29.9353 116.933 29.6345 116.933 29.3132V28.5134C116.933 28.1921 116.872 27.8914 116.749 27.6111C116.633 27.3308 116.451 27.1052 116.205 26.9343C115.966 26.7566 115.658 26.6677 115.282 26.6677C114.92 26.6677 114.616 26.7566 114.37 26.9343C114.131 27.1052 113.949 27.3308 113.826 27.6111C113.71 27.8914 113.652 28.1921 113.652 28.5134ZM115.754 19.3669L108.464 31.0359L107.397 30.3591L114.688 18.6902L115.754 19.3669Z" fill="black"/>
<path d="M321.619 15.7822V30.7939H319.722V18.1509L315.898 19.5454V17.833L321.322 15.7822H321.619ZM336.569 22.1396V24.416C336.569 25.6396 336.46 26.6719 336.241 27.5127C336.023 28.3535 335.708 29.0303 335.298 29.543C334.888 30.0557 334.392 30.4282 333.811 30.6606C333.237 30.8862 332.587 30.999 331.863 30.999C331.289 30.999 330.759 30.9272 330.273 30.7837C329.788 30.6401 329.351 30.4111 328.961 30.0967C328.578 29.7754 328.25 29.3584 327.977 28.8457C327.703 28.333 327.495 27.7109 327.351 26.9795C327.208 26.248 327.136 25.3936 327.136 24.416V22.1396C327.136 20.916 327.245 19.8906 327.464 19.0635C327.69 18.2363 328.007 17.5732 328.418 17.0742C328.828 16.5684 329.32 16.2061 329.894 15.9873C330.475 15.7686 331.125 15.6592 331.842 15.6592C332.423 15.6592 332.957 15.731 333.442 15.8745C333.934 16.0112 334.372 16.2334 334.754 16.541C335.137 16.8418 335.462 17.2451 335.729 17.751C336.002 18.25 336.211 18.8618 336.354 19.5864C336.498 20.311 336.569 21.1621 336.569 22.1396ZM334.662 24.7236V21.8218C334.662 21.1519 334.621 20.564 334.539 20.0581C334.464 19.5454 334.351 19.1079 334.201 18.7456C334.05 18.3833 333.859 18.0894 333.627 17.8638C333.401 17.6382 333.138 17.4741 332.837 17.3716C332.543 17.2622 332.211 17.2075 331.842 17.2075C331.391 17.2075 330.991 17.293 330.643 17.4639C330.294 17.6279 330 17.8911 329.761 18.2534C329.528 18.6157 329.351 19.0908 329.228 19.6787C329.105 20.2666 329.043 20.981 329.043 21.8218V24.7236C329.043 25.3936 329.081 25.9849 329.156 26.4976C329.238 27.0103 329.357 27.4546 329.515 27.8306C329.672 28.1997 329.863 28.5039 330.089 28.7432C330.315 28.9824 330.574 29.1602 330.868 29.2764C331.169 29.3857 331.501 29.4404 331.863 29.4404C332.328 29.4404 332.734 29.3516 333.083 29.1738C333.432 28.9961 333.722 28.7192 333.955 28.3433C334.194 27.9604 334.372 27.4717 334.488 26.877C334.604 26.2754 334.662 25.5576 334.662 24.7236ZM338.846 19.5249V18.7354C338.846 18.168 338.969 17.6519 339.215 17.187C339.461 16.7222 339.813 16.3496 340.271 16.0693C340.729 15.7891 341.273 15.6489 341.901 15.6489C342.544 15.6489 343.091 15.7891 343.542 16.0693C344 16.3496 344.352 16.7222 344.598 17.187C344.844 17.6519 344.967 18.168 344.967 18.7354V19.5249C344.967 20.0786 344.844 20.5879 344.598 21.0527C344.359 21.5176 344.01 21.8901 343.552 22.1704C343.101 22.4507 342.558 22.5908 341.922 22.5908C341.286 22.5908 340.736 22.4507 340.271 22.1704C339.813 21.8901 339.461 21.5176 339.215 21.0527C338.969 20.5879 338.846 20.0786 338.846 19.5249ZM340.271 18.7354V19.5249C340.271 19.8394 340.329 20.1367 340.445 20.417C340.568 20.6973 340.753 20.9263 340.999 21.104C341.245 21.2749 341.553 21.3604 341.922 21.3604C342.291 21.3604 342.595 21.2749 342.835 21.104C343.074 20.9263 343.252 20.6973 343.368 20.417C343.484 20.1367 343.542 19.8394 343.542 19.5249V18.7354C343.542 18.4141 343.481 18.1133 343.357 17.833C343.241 17.5459 343.06 17.3169 342.814 17.146C342.575 16.9683 342.271 16.8794 341.901 16.8794C341.539 16.8794 341.235 16.9683 340.989 17.146C340.75 17.3169 340.568 17.5459 340.445 17.833C340.329 18.1133 340.271 18.4141 340.271 18.7354ZM346.116 27.9331V27.1333C346.116 26.5728 346.239 26.0601 346.485 25.5952C346.731 25.1304 347.083 24.7578 347.541 24.4775C347.999 24.1973 348.543 24.0571 349.171 24.0571C349.814 24.0571 350.361 24.1973 350.812 24.4775C351.27 24.7578 351.622 25.1304 351.868 25.5952C352.114 26.0601 352.237 26.5728 352.237 27.1333V27.9331C352.237 28.4937 352.114 29.0063 351.868 29.4712C351.629 29.936 351.28 30.3086 350.822 30.5889C350.371 30.8691 349.828 31.0093 349.192 31.0093C348.556 31.0093 348.009 30.8691 347.551 30.5889C347.093 30.3086 346.738 29.936 346.485 29.4712C346.239 29.0063 346.116 28.4937 346.116 27.9331ZM347.541 27.1333V27.9331C347.541 28.2476 347.599 28.5483 347.715 28.8354C347.838 29.1157 348.023 29.3447 348.269 29.5225C348.515 29.6934 348.823 29.7788 349.192 29.7788C349.561 29.7788 349.865 29.6934 350.105 29.5225C350.351 29.3447 350.532 29.1157 350.648 28.8354C350.764 28.5552 350.822 28.2544 350.822 27.9331V27.1333C350.822 26.812 350.761 26.5112 350.638 26.231C350.522 25.9507 350.34 25.7251 350.094 25.5542C349.855 25.3765 349.547 25.2876 349.171 25.2876C348.809 25.2876 348.505 25.3765 348.259 25.5542C348.02 25.7251 347.838 25.9507 347.715 26.231C347.599 26.5112 347.541 26.812 347.541 27.1333ZM349.643 17.9868L342.353 29.6558L341.286 28.979L348.577 17.3101L349.643 17.9868Z" fill="black"/>
</svg>
