<svg width="425" height="364" viewBox="0 0 425 364" fill="none" xmlns="http://www.w3.org/2000/svg">
<circle cx="225.192" cy="200.141" r="150" stroke="#393745" stroke-width="2" stroke-linecap="round" stroke-linejoin="round" stroke-dasharray="8 8"/>
<path d="M214.192 62.3069C244.323 59.9022 274.413 67.4372 299.855 83.7588L275.963 121.001C258.662 109.903 238.201 104.779 217.712 106.414L214.192 62.3069Z" fill="#8F8F8F"/>
<path d="M298.466 82.8795C326.386 100.326 347.165 127.163 357.065 158.562C366.966 189.961 365.337 223.863 352.473 254.169C339.609 284.475 316.353 309.196 286.889 323.886C257.425 338.577 223.686 342.272 191.741 334.307C159.796 326.342 131.741 307.24 112.622 280.437C93.5038 253.633 84.5763 220.888 87.4458 188.09C90.3152 155.292 104.793 124.594 128.276 101.518C151.758 78.4421 182.704 64.5021 215.547 62.2055L218.633 106.345C196.3 107.907 175.257 117.386 159.289 133.078C143.321 148.769 133.476 169.644 131.525 191.947C129.573 214.249 135.644 236.516 148.645 254.742C161.645 272.968 180.723 285.958 202.446 291.374C224.168 296.79 247.111 294.277 267.146 284.288C287.182 274.299 302.996 257.488 311.743 236.88C320.491 216.272 321.598 193.219 314.866 171.867C308.134 150.516 294.004 132.267 275.018 120.403L298.466 82.8795Z" fill="#BDBDBD"/>
<path d="M164.287 64.524L129.076 41.5835H75.1922" stroke="#393745" stroke-width="3" stroke-dasharray="6 6"/>
<path d="M273.072 58.2044L306.492 35.2639H357.633" stroke="#393745" stroke-width="3" stroke-dasharray="6 6"/>
<path d="M83.8613 30.5847H84.0562C85.1499 30.5847 86.0386 30.4309 86.7222 30.1233C87.4058 29.8157 87.9321 29.4021 88.3013 28.8826C88.6704 28.363 88.9233 27.7786 89.0601 27.1292C89.1968 26.4729 89.2651 25.7996 89.2651 25.1091V22.8225C89.2651 22.1458 89.1865 21.5442 89.0293 21.0178C88.8789 20.4915 88.667 20.0505 88.3936 19.6951C88.127 19.3396 87.8228 19.0696 87.481 18.885C87.1392 18.7004 86.7769 18.6082 86.394 18.6082C85.9565 18.6082 85.5635 18.697 85.2148 18.8748C84.873 19.0457 84.5825 19.2883 84.3433 19.6028C84.1108 19.9172 83.9331 20.2864 83.8101 20.7102C83.687 21.134 83.6255 21.5955 83.6255 22.0945C83.6255 22.5388 83.6802 22.9695 83.7896 23.3865C83.8989 23.8035 84.0664 24.1794 84.292 24.5144C84.5176 24.8494 84.7979 25.116 85.1328 25.3142C85.4746 25.5056 85.8745 25.6013 86.3325 25.6013C86.7563 25.6013 87.1528 25.5193 87.522 25.3552C87.8979 25.1843 88.2295 24.9553 88.5166 24.6682C88.8105 24.3743 89.043 24.0427 89.2139 23.6736C89.3916 23.3044 89.4941 22.9182 89.5215 22.5149H90.4238C90.4238 23.0823 90.311 23.6428 90.0854 24.1965C89.8667 24.7434 89.5591 25.2424 89.1626 25.6936C88.7661 26.1448 88.3013 26.5071 87.7681 26.7805C87.2349 27.0471 86.6538 27.1804 86.0249 27.1804C85.2866 27.1804 84.6475 27.0369 84.1074 26.7498C83.5674 26.4626 83.123 26.0798 82.7744 25.6013C82.4326 25.1228 82.1763 24.5896 82.0054 24.0017C81.8413 23.407 81.7593 22.8054 81.7593 22.197C81.7593 21.4861 81.8584 20.8196 82.0566 20.1975C82.2549 19.5754 82.5488 19.0286 82.9385 18.5569C83.3281 18.0784 83.8101 17.7058 84.3843 17.4392C84.9653 17.1726 85.6353 17.0393 86.394 17.0393C87.2485 17.0393 87.9766 17.2102 88.5781 17.552C89.1797 17.8938 89.6685 18.3518 90.0444 18.926C90.4272 19.5002 90.7075 20.1462 90.8853 20.864C91.063 21.5818 91.1519 22.3201 91.1519 23.0789V23.7659C91.1519 24.5383 91.1006 25.3245 90.998 26.1243C90.9023 26.9172 90.7144 27.676 90.4341 28.4006C90.1606 29.1252 89.7607 29.7747 89.2344 30.3489C88.708 30.9163 88.021 31.3674 87.1733 31.7024C86.3325 32.0305 85.2935 32.1946 84.0562 32.1946H83.8613V30.5847ZM103.159 23.5198V25.7961C103.159 27.0198 103.05 28.052 102.831 28.8928C102.612 29.7336 102.298 30.4104 101.888 30.9231C101.478 31.4358 100.982 31.8083 100.401 32.0408C99.8267 32.2664 99.1772 32.3792 98.4526 32.3792C97.8784 32.3792 97.3486 32.3074 96.8633 32.1638C96.3779 32.0203 95.9404 31.7913 95.5508 31.4768C95.168 31.1555 94.8398 30.7385 94.5664 30.2258C94.293 29.7131 94.0845 29.0911 93.9409 28.3596C93.7974 27.6282 93.7256 26.7737 93.7256 25.7961V23.5198C93.7256 22.2961 93.835 21.2708 94.0537 20.4436C94.2793 19.6165 94.5972 18.9534 95.0073 18.4543C95.4175 17.9485 95.9097 17.5862 96.4839 17.3674C97.0649 17.1487 97.7144 17.0393 98.4321 17.0393C99.0132 17.0393 99.5464 17.1111 100.032 17.2546C100.524 17.3914 100.961 17.6135 101.344 17.9211C101.727 18.2219 102.052 18.6252 102.318 19.1311C102.592 19.6301 102.8 20.2419 102.944 20.9666C103.087 21.6912 103.159 22.5422 103.159 23.5198ZM101.252 26.1038V23.2019C101.252 22.532 101.211 21.9441 101.129 21.4382C101.054 20.9255 100.941 20.488 100.791 20.1257C100.64 19.7634 100.449 19.4695 100.216 19.2439C99.9907 19.0183 99.7275 18.8542 99.4268 18.7517C99.1328 18.6423 98.8013 18.5876 98.4321 18.5876C97.981 18.5876 97.5811 18.6731 97.2324 18.844C96.8838 19.0081 96.5898 19.2712 96.3506 19.6335C96.1182 19.9958 95.9404 20.4709 95.8174 21.0588C95.6943 21.6467 95.6328 22.3611 95.6328 23.2019V26.1038C95.6328 26.7737 95.6704 27.365 95.7456 27.8777C95.8276 28.3904 95.9473 28.8347 96.1045 29.2107C96.2617 29.5798 96.4531 29.884 96.6787 30.1233C96.9043 30.3625 97.1641 30.5403 97.458 30.6565C97.7588 30.7659 98.0903 30.8206 98.4526 30.8206C98.9175 30.8206 99.3242 30.7317 99.6729 30.554C100.021 30.3762 100.312 30.0994 100.544 29.7234C100.784 29.3406 100.961 28.8518 101.078 28.2571C101.194 27.6555 101.252 26.9377 101.252 26.1038ZM105.436 20.905V20.1155C105.436 19.5481 105.559 19.032 105.805 18.5671C106.051 18.1023 106.403 17.7297 106.861 17.4495C107.319 17.1692 107.862 17.0291 108.491 17.0291C109.134 17.0291 109.681 17.1692 110.132 17.4495C110.59 17.7297 110.942 18.1023 111.188 18.5671C111.434 19.032 111.557 19.5481 111.557 20.1155V20.905C111.557 21.4587 111.434 21.968 111.188 22.4329C110.949 22.8977 110.6 23.2703 110.142 23.5505C109.691 23.8308 109.147 23.9709 108.512 23.9709C107.876 23.9709 107.326 23.8308 106.861 23.5505C106.403 23.2703 106.051 22.8977 105.805 22.4329C105.559 21.968 105.436 21.4587 105.436 20.905ZM106.861 20.1155V20.905C106.861 21.2195 106.919 21.5168 107.035 21.7971C107.158 22.0774 107.343 22.3064 107.589 22.4841C107.835 22.655 108.143 22.7405 108.512 22.7405C108.881 22.7405 109.185 22.655 109.424 22.4841C109.664 22.3064 109.841 22.0774 109.958 21.7971C110.074 21.5168 110.132 21.2195 110.132 20.905V20.1155C110.132 19.7942 110.07 19.4934 109.947 19.2131C109.831 18.926 109.65 18.697 109.404 18.5261C109.165 18.3484 108.86 18.2595 108.491 18.2595C108.129 18.2595 107.825 18.3484 107.579 18.5261C107.339 18.697 107.158 18.926 107.035 19.2131C106.919 19.4934 106.861 19.7942 106.861 20.1155ZM112.706 29.3132V28.5134C112.706 27.9529 112.829 27.4402 113.075 26.9753C113.321 26.5105 113.673 26.1379 114.131 25.8577C114.589 25.5774 115.132 25.4373 115.761 25.4373C116.404 25.4373 116.951 25.5774 117.402 25.8577C117.86 26.1379 118.212 26.5105 118.458 26.9753C118.704 27.4402 118.827 27.9529 118.827 28.5134V29.3132C118.827 29.8738 118.704 30.3865 118.458 30.8513C118.219 31.3162 117.87 31.6887 117.412 31.969C116.961 32.2493 116.417 32.3894 115.782 32.3894C115.146 32.3894 114.599 32.2493 114.141 31.969C113.683 31.6887 113.328 31.3162 113.075 30.8513C112.829 30.3865 112.706 29.8738 112.706 29.3132ZM114.131 28.5134V29.3132C114.131 29.6277 114.189 29.9285 114.305 30.2156C114.428 30.4958 114.613 30.7249 114.859 30.9026C115.105 31.0735 115.413 31.1589 115.782 31.1589C116.151 31.1589 116.455 31.0735 116.694 30.9026C116.94 30.7249 117.122 30.4958 117.238 30.2156C117.354 29.9353 117.412 29.6345 117.412 29.3132V28.5134C117.412 28.1921 117.351 27.8914 117.228 27.6111C117.111 27.3308 116.93 27.1052 116.684 26.9343C116.445 26.7566 116.137 26.6677 115.761 26.6677C115.399 26.6677 115.095 26.7566 114.849 26.9343C114.609 27.1052 114.428 27.3308 114.305 27.6111C114.189 27.8914 114.131 28.1921 114.131 28.5134ZM116.233 19.3669L108.942 31.0359L107.876 30.3591L115.167 18.6902L116.233 19.3669Z" fill="black"/>
<path d="M322.098 15.7822V30.7939H320.201V18.1509L316.376 19.5454V17.833L321.801 15.7822H322.098ZM337.048 22.1396V24.416C337.048 25.6396 336.939 26.6719 336.72 27.5127C336.501 28.3535 336.187 29.0303 335.777 29.543C335.367 30.0557 334.871 30.4282 334.29 30.6606C333.716 30.8862 333.066 30.999 332.342 30.999C331.767 30.999 331.238 30.9272 330.752 30.7837C330.267 30.6401 329.829 30.4111 329.44 30.0967C329.057 29.7754 328.729 29.3584 328.455 28.8457C328.182 28.333 327.974 27.7109 327.83 26.9795C327.686 26.248 327.615 25.3936 327.615 24.416V22.1396C327.615 20.916 327.724 19.8906 327.943 19.0635C328.168 18.2363 328.486 17.5732 328.896 17.0742C329.307 16.5684 329.799 16.2061 330.373 15.9873C330.954 15.7686 331.603 15.6592 332.321 15.6592C332.902 15.6592 333.435 15.731 333.921 15.8745C334.413 16.0112 334.85 16.2334 335.233 16.541C335.616 16.8418 335.941 17.2451 336.207 17.751C336.481 18.25 336.689 18.8618 336.833 19.5864C336.976 20.311 337.048 21.1621 337.048 22.1396ZM335.141 24.7236V21.8218C335.141 21.1519 335.1 20.564 335.018 20.0581C334.943 19.5454 334.83 19.1079 334.68 18.7456C334.529 18.3833 334.338 18.0894 334.105 17.8638C333.88 17.6382 333.617 17.4741 333.316 17.3716C333.022 17.2622 332.69 17.2075 332.321 17.2075C331.87 17.2075 331.47 17.293 331.121 17.4639C330.773 17.6279 330.479 17.8911 330.24 18.2534C330.007 18.6157 329.829 19.0908 329.706 19.6787C329.583 20.2666 329.522 20.981 329.522 21.8218V24.7236C329.522 25.3936 329.559 25.9849 329.635 26.4976C329.717 27.0103 329.836 27.4546 329.994 27.8306C330.151 28.1997 330.342 28.5039 330.568 28.7432C330.793 28.9824 331.053 29.1602 331.347 29.2764C331.648 29.3857 331.979 29.4404 332.342 29.4404C332.807 29.4404 333.213 29.3516 333.562 29.1738C333.911 28.9961 334.201 28.7192 334.433 28.3433C334.673 27.9604 334.85 27.4717 334.967 26.877C335.083 26.2754 335.141 25.5576 335.141 24.7236ZM339.325 19.5249V18.7354C339.325 18.168 339.448 17.6519 339.694 17.187C339.94 16.7222 340.292 16.3496 340.75 16.0693C341.208 15.7891 341.751 15.6489 342.38 15.6489C343.023 15.6489 343.57 15.7891 344.021 16.0693C344.479 16.3496 344.831 16.7222 345.077 17.187C345.323 17.6519 345.446 18.168 345.446 18.7354V19.5249C345.446 20.0786 345.323 20.5879 345.077 21.0527C344.838 21.5176 344.489 21.8901 344.031 22.1704C343.58 22.4507 343.036 22.5908 342.401 22.5908C341.765 22.5908 341.215 22.4507 340.75 22.1704C340.292 21.8901 339.94 21.5176 339.694 21.0527C339.448 20.5879 339.325 20.0786 339.325 19.5249ZM340.75 18.7354V19.5249C340.75 19.8394 340.808 20.1367 340.924 20.417C341.047 20.6973 341.232 20.9263 341.478 21.104C341.724 21.2749 342.032 21.3604 342.401 21.3604C342.77 21.3604 343.074 21.2749 343.313 21.104C343.553 20.9263 343.73 20.6973 343.847 20.417C343.963 20.1367 344.021 19.8394 344.021 19.5249V18.7354C344.021 18.4141 343.959 18.1133 343.836 17.833C343.72 17.5459 343.539 17.3169 343.293 17.146C343.054 16.9683 342.749 16.8794 342.38 16.8794C342.018 16.8794 341.714 16.9683 341.468 17.146C341.228 17.3169 341.047 17.5459 340.924 17.833C340.808 18.1133 340.75 18.4141 340.75 18.7354ZM346.595 27.9331V27.1333C346.595 26.5728 346.718 26.0601 346.964 25.5952C347.21 25.1304 347.562 24.7578 348.02 24.4775C348.478 24.1973 349.021 24.0571 349.65 24.0571C350.293 24.0571 350.84 24.1973 351.291 24.4775C351.749 24.7578 352.101 25.1304 352.347 25.5952C352.593 26.0601 352.716 26.5728 352.716 27.1333V27.9331C352.716 28.4937 352.593 29.0063 352.347 29.4712C352.108 29.936 351.759 30.3086 351.301 30.5889C350.85 30.8691 350.307 31.0093 349.671 31.0093C349.035 31.0093 348.488 30.8691 348.03 30.5889C347.572 30.3086 347.217 29.936 346.964 29.4712C346.718 29.0063 346.595 28.4937 346.595 27.9331ZM348.02 27.1333V27.9331C348.02 28.2476 348.078 28.5483 348.194 28.8354C348.317 29.1157 348.502 29.3447 348.748 29.5225C348.994 29.6934 349.302 29.7788 349.671 29.7788C350.04 29.7788 350.344 29.6934 350.583 29.5225C350.829 29.3447 351.011 29.1157 351.127 28.8354C351.243 28.5552 351.301 28.2544 351.301 27.9331V27.1333C351.301 26.812 351.24 26.5112 351.117 26.231C351 25.9507 350.819 25.7251 350.573 25.5542C350.334 25.3765 350.026 25.2876 349.65 25.2876C349.288 25.2876 348.984 25.3765 348.738 25.5542C348.498 25.7251 348.317 25.9507 348.194 26.231C348.078 26.5112 348.02 26.812 348.02 27.1333ZM350.122 17.9868L342.831 29.6558L341.765 28.979L349.056 17.3101L350.122 17.9868Z" fill="black"/>
</svg>
